<?xml version="1.0" encoding="UTF-8"?>
<svg xmlns="http://www.w3.org/2000/svg" xmlns:xlink="http://www.w3.org/1999/xlink" width="252px" height="252px" viewBox="0 0 252 252" version="1.1">
<g id="surface1">
<path style=" stroke:none;fill-rule:nonzero;fill:rgb(13.725491%,40.784314%,25.098041%);fill-opacity:1;" d="M 130.414062 187.699219 L 130.570312 185.363281 L 135.8125 185.363281 L 135.8125 182.566406 L 127.816406 182.566406 L 127.148438 190.714844 C 127.148438 190.714844 128.632812 190.328125 130.4375 190.429688 C 132.015625 190.519531 133.492188 191.269531 133.539062 192.609375 C 133.578125 193.816406 132.355469 194.488281 131.246094 194.691406 C 130.054688 194.90625 128.441406 194.625 127.664062 194.308594 L 126.996094 196.929688 C 127.933594 197.421875 130.226562 197.664062 131.707031 197.421875 C 134.996094 196.886719 136.632812 195.085938 136.632812 192.34375 C 136.632812 190.089844 134.980469 187.542969 130.414062 187.699219 "/>
<path style=" stroke:none;fill-rule:nonzero;fill:rgb(13.725491%,40.784314%,25.098041%);fill-opacity:1;" d="M 143.667969 191.722656 C 143.667969 191.722656 148.148438 188.53125 148.148438 185.992188 C 148.148438 183.976562 146.4375 182.414062 143.753906 182.414062 C 141.824219 182.414062 139.976562 183.246094 138.695312 184.328125 L 140.113281 186.789062 C 141.144531 185.804688 142.433594 185.222656 143.476562 185.222656 C 144.441406 185.222656 145.015625 185.703125 144.992188 186.421875 C 144.933594 188.089844 139.144531 192.167969 139.144531 192.167969 L 138.902344 194.503906 L 148.5 194.503906 L 148.882812 191.722656 Z M 143.667969 191.722656 "/>
<path style=" stroke:none;fill-rule:nonzero;fill:rgb(13.725491%,40.784314%,25.098041%);fill-opacity:1;" d="M 118.824219 189.464844 C 117.550781 189.464844 116.949219 188.414062 116.949219 187.277344 C 116.949219 185.914062 117.660156 184.84375 118.832031 184.84375 C 120.15625 184.84375 120.890625 186.085938 120.871094 187.132812 C 120.890625 188.210938 120.257812 189.464844 118.824219 189.464844 M 118.800781 182.136719 C 115.871094 182.152344 113.847656 184.460938 113.847656 187.257812 C 113.847656 189.851562 115.515625 191.941406 118.085938 191.941406 C 119.523438 191.941406 120.742188 191.382812 121.367188 190.492188 C 121.53125 192.542969 120.613281 194.253906 118.484375 194.730469 C 117.546875 194.941406 116.226562 194.789062 115.550781 194.5 L 114.878906 197.121094 C 115.996094 197.613281 117.882812 197.734375 119.277344 197.382812 C 122.839844 196.484375 124.355469 193.664062 124.355469 189.429688 C 124.355469 185.363281 122.484375 182.121094 118.800781 182.136719 "/>
<path style=" stroke:none;fill-rule:nonzero;fill:rgb(13.725491%,40.784314%,25.098041%);fill-opacity:1;" d="M 126.101562 2.046875 C 57.699219 2.046875 2.046875 57.699219 2.046875 126.101562 C 2.046875 194.503906 57.699219 250.15625 126.101562 250.15625 C 194.503906 250.15625 250.15625 194.503906 250.15625 126.101562 C 250.15625 57.699219 194.503906 2.046875 126.101562 2.046875 M 126.101562 252.203125 C 56.570312 252.203125 0 195.632812 0 126.101562 C 0 56.570312 56.570312 0 126.101562 0 C 195.632812 0 252.203125 56.570312 252.203125 126.101562 C 252.203125 195.632812 195.632812 252.203125 126.101562 252.203125 "/>
<path style=" stroke:none;fill-rule:nonzero;fill:rgb(13.725491%,40.784314%,25.098041%);fill-opacity:1;" d="M 126.101562 36.382812 C 76.632812 36.382812 36.382812 76.632812 36.382812 126.101562 C 36.382812 175.570312 76.632812 215.820312 126.101562 215.820312 C 175.570312 215.820312 215.820312 175.570312 215.820312 126.101562 C 215.820312 76.632812 175.570312 36.382812 126.101562 36.382812 M 126.101562 217.867188 C 75.5 217.867188 34.335938 176.699219 34.335938 126.101562 C 34.335938 75.5 75.5 34.335938 126.101562 34.335938 C 176.703125 34.335938 217.867188 75.5 217.867188 126.101562 C 217.867188 176.699219 176.703125 217.867188 126.101562 217.867188 "/>
<path style=" stroke:none;fill-rule:nonzero;fill:rgb(13.725491%,40.784314%,25.098041%);fill-opacity:1;" d="M 126.101562 101.15625 C 126.101562 101.15625 147.585938 120.980469 175.957031 137.84375 L 175.964844 119.335938 C 144.933594 99.703125 126.101562 80.722656 126.101562 80.722656 C 126.101562 80.722656 107.269531 99.703125 76.238281 119.335938 L 76.246094 137.84375 C 104.617188 120.980469 126.101562 101.15625 126.101562 101.15625 "/>
<path style=" stroke:none;fill-rule:nonzero;fill:rgb(13.725491%,40.784314%,25.098041%);fill-opacity:1;" d="M 126.101562 68.113281 C 126.101562 68.113281 143.042969 85.199219 163.753906 98.394531 L 163.761719 80.5625 C 140.832031 64.078125 126.101562 47.679688 126.101562 47.679688 C 126.101562 47.679688 111.371094 64.078125 88.4375 80.5625 L 88.445312 98.394531 C 109.160156 85.199219 126.101562 68.113281 126.101562 68.113281 "/>
<path style=" stroke:none;fill-rule:nonzero;fill:rgb(13.725491%,40.784314%,25.098041%);fill-opacity:1;" d="M 126.101562 157.636719 C 118.714844 151.722656 104.414062 151.355469 104.414062 151.355469 L 126.101562 134.199219 L 147.789062 151.355469 C 147.789062 151.355469 133.488281 151.722656 126.101562 157.636719 M 192.066406 152.90625 L 178.085938 152.90625 C 153.511719 139.546875 126.101562 113.765625 126.101562 113.765625 C 126.101562 113.765625 98.6875 139.546875 74.117188 152.90625 L 60.132812 152.90625 L 51.835938 167.292969 C 51.835938 167.292969 57.359375 170.234375 68.617188 168.886719 C 72.761719 168.390625 82.332031 166.328125 93.21875 166.003906 C 101.273438 165.765625 111.347656 167.089844 116.417969 172.152344 L 126.101562 172.148438 L 135.785156 172.152344 C 140.851562 167.089844 150.929688 165.765625 158.984375 166.003906 C 169.871094 166.328125 179.4375 168.390625 183.582031 168.886719 C 194.84375 170.234375 200.367188 167.292969 200.367188 167.292969 Z M 192.066406 152.90625 "/>
<path style=" stroke:none;fill-rule:nonzero;fill:rgb(13.725491%,40.784314%,25.098041%);fill-opacity:1;" d="M 37.097656 185.726562 L 34.8125 185.828125 C 34.8125 185.828125 34.878906 186.6875 35.871094 187.894531 C 35.988281 188.039062 36.164062 188.234375 36.375 188.472656 L 33.800781 190.113281 C 32.746094 189.554688 31.484375 188.277344 30.800781 187.207031 C 28.71875 183.941406 29.457031 181.339844 32.152344 179.621094 C 34.882812 177.878906 37.847656 178.6875 39.664062 181.535156 C 40.652344 183.085938 41.140625 185.144531 40.855469 186.683594 L 43.394531 186.890625 C 43.703125 184.902344 43.105469 182.34375 41.707031 180.230469 C 38.695312 175.679688 34.402344 174.96875 30.710938 177.320312 C 27.019531 179.675781 25.644531 183.796875 28.578125 188.398438 C 29.867188 190.417969 31.960938 192.191406 33.789062 192.871094 L 39.382812 189.304688 L 38.136719 187.351562 Z M 37.097656 185.726562 "/>
<path style=" stroke:none;fill-rule:nonzero;fill:rgb(13.725491%,40.784314%,25.098041%);fill-opacity:1;" d="M 25.996094 133.167969 L 25.988281 133.058594 L 25.929688 132.410156 C 25.929688 132.410156 25.277344 132.628906 25.140625 133.242188 L 10.953125 134.484375 L 11.1875 137.15625 L 26.230469 135.84375 Z M 25.996094 133.167969 "/>
<path style=" stroke:none;fill-rule:nonzero;fill:rgb(13.725491%,40.784314%,25.098041%);fill-opacity:1;" d="M 29.242188 152.285156 L 29.214844 152.179688 L 29.035156 151.550781 C 29.035156 151.550781 28.4375 151.890625 28.417969 152.519531 L 14.71875 156.410156 L 15.449219 158.992188 L 29.976562 154.867188 Z M 29.242188 152.285156 "/>
<path style=" stroke:none;fill-rule:nonzero;fill:rgb(13.725491%,40.784314%,25.098041%);fill-opacity:1;" d="M 27.640625 145.421875 L 27.621094 145.316406 L 27.507812 144.675781 C 27.507812 144.675781 26.878906 144.949219 26.792969 145.574219 L 25.257812 145.84375 L 24.453125 145.988281 L 17.503906 147.214844 C 16.101562 147.464844 14.917969 146.738281 14.667969 145.316406 C 14.457031 144.125 14.914062 142.847656 15.820312 141.65625 L 13.699219 140.527344 C 12.574219 141.816406 11.851562 143.636719 12.214844 145.675781 C 12.761719 148.777344 14.847656 150.410156 17.910156 149.871094 L 28.109375 148.066406 Z M 27.640625 145.421875 "/>
<path style=" stroke:none;fill-rule:nonzero;fill:rgb(13.725491%,40.784314%,25.098041%);fill-opacity:1;" d="M 30.832031 157.96875 C 30.832031 157.96875 30.277344 158.375 30.332031 159.003906 L 17.195312 164.515625 L 18.238281 166.992188 L 27.71875 163.011719 L 32.15625 161.128906 Z M 30.832031 157.96875 "/>
<path style=" stroke:none;fill-rule:nonzero;fill:rgb(13.725491%,40.784314%,25.098041%);fill-opacity:1;" d="M 35.46875 169.023438 L 25.417969 173.242188 L 24.371094 173.683594 C 24.371094 173.683594 25.453125 172.96875 26.378906 171.082031 C 27.9375 167.800781 29.875 164.640625 31.066406 162.789062 C 29.5 163.027344 27.246094 163.816406 25.761719 166.261719 C 24.523438 168.457031 22.90625 171.5625 21.578125 174.953125 L 22.578125 177.34375 L 36.507812 171.5 Z M 35.46875 169.023438 "/>
<path style=" stroke:none;fill-rule:nonzero;fill:rgb(13.725491%,40.784314%,25.098041%);fill-opacity:1;" d="M 14.773438 107.03125 L 15.6875 102.035156 L 19.628906 102.757812 L 18.714844 107.753906 C 18.40625 109.5625 17.597656 110.707031 16.292969 110.46875 C 14.90625 110.214844 14.421875 108.832031 14.773438 107.03125 M 19.761719 110.707031 C 19.871094 112.394531 20.945312 113.601562 22.578125 113.898438 C 24.871094 114.320312 26.648438 112.625 27.226562 109.460938 L 28.308594 103.546875 L 28.308594 103.550781 C 28.511719 102.417969 28.722656 101.585938 28.722656 101.585938 C 28.722656 101.585938 26.277344 101.574219 25.167969 107.230469 C 25.046875 107.894531 24.9375 108.5 24.871094 108.878906 C 24.613281 110.34375 23.765625 111.289062 22.570312 111.070312 C 21.332031 110.84375 20.828125 109.652344 21.09375 108.1875 L 22.007812 103.191406 L 25.335938 103.800781 C 25.917969 102.085938 26.945312 101.363281 26.945312 101.363281 L 25.910156 101.175781 L 13.789062 98.960938 L 12.332031 106.9375 C 11.710938 110.332031 12.878906 112.71875 15.425781 113.183594 C 17.402344 113.546875 19.039062 112.617188 19.761719 110.707031 "/>
<path style=" stroke:none;fill-rule:nonzero;fill:rgb(13.725491%,40.784314%,25.098041%);fill-opacity:1;" d="M 13.421875 119.4375 L 17.339844 119.585938 L 17.011719 128.328125 L 19.429688 128.417969 L 19.757812 119.675781 L 23.210938 119.804688 C 23.238281 119.65625 23.273438 119.519531 23.304688 119.386719 C 23.316406 119.351562 23.324219 119.320312 23.332031 119.285156 C 23.367188 119.164062 23.402344 119.046875 23.441406 118.933594 C 23.441406 118.925781 23.441406 118.921875 23.445312 118.914062 C 23.488281 118.792969 23.53125 118.679688 23.578125 118.570312 C 23.585938 118.550781 23.59375 118.53125 23.601562 118.515625 C 23.644531 118.410156 23.691406 118.308594 23.738281 118.21875 C 24.089844 117.511719 24.457031 117.164062 24.457031 117.164062 L 23.777344 117.140625 L 23.410156 117.125 L 19.859375 116.992188 L 17.441406 116.902344 L 13.519531 116.753906 L 11.101562 116.664062 L 11 119.347656 L 10.632812 129.195312 L 13.050781 129.285156 Z M 13.421875 119.4375 "/>
<path style=" stroke:none;fill-rule:nonzero;fill:rgb(13.725491%,40.784314%,25.098041%);fill-opacity:1;" d="M 26.144531 118.679688 C 26.1875 117.765625 26.253906 117.128906 26.253906 117.128906 C 26.253906 117.128906 23.847656 117.464844 23.550781 123.203125 L 23.320312 129.40625 L 25.738281 129.496094 Z M 26.144531 118.679688 "/>
<path style=" stroke:none;fill-rule:nonzero;fill:rgb(13.725491%,40.784314%,25.098041%);fill-opacity:1;" d="M 131.609375 226.691406 L 118.425781 226.550781 L 118.398438 228.96875 L 123.648438 229.027344 L 123.511719 241.710938 L 126.195312 241.742188 L 126.332031 229.054688 L 131.582031 229.113281 Z M 131.609375 226.691406 "/>
<path style=" stroke:none;fill-rule:nonzero;fill:rgb(13.725491%,40.784314%,25.098041%);fill-opacity:1;" d="M 68.273438 217.402344 C 66.46875 220.023438 63.660156 220.496094 61.136719 218.789062 C 58.640625 217.050781 58.074219 214.234375 59.875 211.609375 L 59.835938 211.582031 C 59.835938 211.582031 59.875 211.609375 59.875 211.609375 C 61.679688 208.988281 64.511719 208.5 67.03125 210.207031 C 69.527344 211.945312 70.074219 214.777344 68.273438 217.402344 M 68.460938 208.125 C 64.722656 205.5625 60.304688 206.191406 57.640625 210.074219 C 54.976562 213.957031 55.976562 218.304688 59.707031 220.871094 C 63.445312 223.433594 67.84375 222.816406 70.507812 218.9375 C 73.175781 215.054688 72.191406 210.691406 68.460938 208.125 "/>
<path style=" stroke:none;fill-rule:nonzero;fill:rgb(13.725491%,40.784314%,25.098041%);fill-opacity:1;" d="M 158.90625 221.207031 C 158.90625 221.207031 157.402344 225.042969 156.585938 229.289062 C 153.59375 226.167969 150.25 223.761719 150.25 223.761719 L 147.515625 224.570312 C 147.515625 224.570312 152.191406 228.003906 155.980469 231.988281 L 157.566406 237.355469 L 158.851562 236.972656 L 160.140625 236.59375 L 158.558594 231.230469 C 159.578125 225.824219 161.636719 220.402344 161.636719 220.402344 Z M 158.90625 221.207031 "/>
<path style=" stroke:none;fill-rule:nonzero;fill:rgb(13.725491%,40.784314%,25.098041%);fill-opacity:1;" d="M 107.542969 229.125 C 107.699219 228.203125 109.003906 227.746094 110.179688 227.945312 C 111.332031 228.140625 112.609375 228.621094 114.390625 230.082031 L 115.871094 227.929688 L 116.359375 227.214844 C 115.789062 227.007812 115.332031 227.242188 115.164062 227.351562 C 113.976562 226.464844 112.46875 225.816406 110.832031 225.539062 C 107.492188 224.972656 104.972656 226.261719 104.527344 228.878906 C 103.621094 234.214844 112.085938 233.824219 111.550781 236.957031 C 111.375 238.003906 109.933594 238.542969 108.53125 238.304688 C 106.933594 238.035156 104.992188 236.890625 103.695312 235.257812 L 102.164062 237.378906 C 103.515625 239.085938 105.6875 240.347656 108.070312 240.753906 C 111.347656 241.308594 114.046875 240.09375 114.527344 237.285156 C 115.464844 231.90625 107.023438 232.167969 107.542969 229.125 "/>
<path style=" stroke:none;fill-rule:nonzero;fill:rgb(13.725491%,40.784314%,25.098041%);fill-opacity:1;" d="M 81.695312 230.089844 C 81.695312 230.074219 81.695312 230.0625 81.695312 230.046875 C 81.683594 229.851562 81.675781 229.65625 81.667969 229.457031 C 81.496094 227.183594 80.488281 226.703125 80.488281 226.703125 C 81.140625 226.867188 81.707031 226.90625 81.707031 226.90625 C 83.511719 227.121094 85.320312 226.222656 86.277344 224.378906 C 87.714844 221.617188 86.421875 218.886719 83.082031 217.148438 L 78.453125 214.742188 L 78.457031 214.742188 C 77.433594 214.214844 76.699219 213.769531 76.699219 213.769531 C 76.699219 213.769531 75.972656 216.089844 81.027344 218.808594 L 81.601562 219.109375 L 81.964844 219.296875 C 84.0625 220.386719 84.6875 221.808594 83.933594 223.261719 C 83.1875 224.695312 81.609375 224.898438 79.597656 223.851562 L 75.660156 221.804688 L 77.816406 217.660156 C 76.46875 216.683594 76.03125 215.597656 75.972656 215.429688 L 75.957031 215.414062 L 69.796875 227.265625 L 72.175781 228.503906 L 74.546875 223.949219 L 78.640625 226.078125 C 78.8125 226.167969 79.101562 226.289062 79.265625 226.351562 C 78.984375 229.496094 79.375 232.246094 79.375 232.246094 L 82.058594 233.640625 C 82.058594 233.640625 81.804688 232.054688 81.695312 230.089844 "/>
<path style=" stroke:none;fill-rule:nonzero;fill:rgb(13.725491%,40.784314%,25.098041%);fill-opacity:1;" d="M 147.074219 236.914062 L 147.078125 236.914062 C 147.066406 236.902344 147.058594 236.894531 147.050781 236.878906 C 146.929688 236.726562 146.808594 236.570312 146.6875 236.414062 C 145.234375 234.65625 144.140625 234.84375 144.140625 234.84375 C 144.765625 234.601562 145.246094 234.304688 145.246094 234.304688 C 146.847656 233.441406 147.808594 231.664062 147.527344 229.609375 C 147.109375 226.519531 144.476562 225.035156 140.746094 225.542969 L 135.578125 226.246094 C 134.441406 226.40625 133.582031 226.460938 133.582031 226.460938 C 133.582031 226.460938 134.328125 228.777344 140.023438 228.085938 L 140.667969 227.996094 L 141.070312 227.941406 C 143.414062 227.625 144.746094 228.421875 144.964844 230.042969 C 145.183594 231.648438 144.011719 232.722656 141.765625 233.027344 L 137.367188 233.625 L 136.738281 228.996094 C 135.074219 228.976562 134.09375 228.339844 133.945312 228.238281 L 133.925781 228.234375 L 135.726562 241.46875 L 138.386719 241.109375 L 137.695312 236.023438 L 142.265625 235.398438 C 142.457031 235.375 142.765625 235.304688 142.933594 235.261719 C 144.519531 237.992188 146.421875 240.015625 146.421875 240.015625 L 149.421875 239.609375 C 149.421875 239.609375 148.296875 238.457031 147.074219 236.914062 "/>
<path style=" stroke:none;fill-rule:nonzero;fill:rgb(13.725491%,40.784314%,25.098041%);fill-opacity:1;" d="M 52.113281 198.03125 C 51.027344 196.589844 51.007812 195.335938 51.007812 195.335938 L 51.003906 195.332031 L 50.523438 195.820312 L 47.773438 198.617188 L 46.074219 200.339844 L 41.625 204.863281 L 43.539062 206.746094 L 47.988281 202.222656 L 54.222656 208.363281 L 55.921875 206.636719 L 49.6875 200.5 Z M 52.113281 198.03125 "/>
<path style=" stroke:none;fill-rule:nonzero;fill:rgb(13.725491%,40.784314%,25.098041%);fill-opacity:1;" d="M 53.359375 195.21875 C 52.660156 194.519531 52.1875 193.988281 52.1875 193.988281 C 52.1875 193.988281 50.8125 195.992188 54.851562 200.078125 L 59.269531 204.433594 L 60.96875 202.707031 Z M 53.359375 195.21875 "/>
<path style=" stroke:none;fill-rule:nonzero;fill:rgb(13.725491%,40.784314%,25.098041%);fill-opacity:1;" d="M 89.53125 233.109375 L 90.816406 229.402344 L 99.082031 232.269531 L 99.875 229.984375 L 91.609375 227.117188 L 92.742188 223.851562 C 92.609375 223.78125 92.488281 223.710938 92.367188 223.636719 C 92.339844 223.621094 92.308594 223.601562 92.28125 223.582031 C 92.175781 223.515625 92.070312 223.449219 91.972656 223.378906 C 91.96875 223.375 91.964844 223.371094 91.960938 223.367188 C 91.855469 223.292969 91.757812 223.214844 91.667969 223.140625 C 91.652344 223.125 91.636719 223.113281 91.621094 223.101562 C 91.535156 223.027344 91.453125 222.953125 91.375 222.882812 C 90.804688 222.339844 90.582031 221.886719 90.582031 221.886719 L 90.359375 222.53125 L 90.238281 222.878906 L 89.074219 226.234375 L 88.277344 228.523438 L 86.992188 232.226562 L 86.199219 234.515625 L 88.734375 235.394531 L 98.046875 238.625 L 98.839844 236.335938 Z M 89.53125 233.109375 "/>
<path style=" stroke:none;fill-rule:nonzero;fill:rgb(13.725491%,40.784314%,25.098041%);fill-opacity:1;" d="M 92.519531 220.71875 C 91.660156 220.410156 91.070312 220.160156 91.070312 220.160156 C 91.070312 220.160156 90.6875 222.5625 96.089844 224.519531 L 101.953125 226.554688 L 102.746094 224.265625 Z M 92.519531 220.71875 "/>
<path style=" stroke:none;fill-rule:nonzero;fill:rgb(13.725491%,40.784314%,25.098041%);fill-opacity:1;" d="M 225.859375 114.648438 L 226.554688 128.15625 L 228.972656 128.03125 L 228.691406 122.617188 L 241.359375 121.96875 L 241.222656 119.285156 L 228.554688 119.9375 L 228.277344 114.523438 Z M 225.859375 114.648438 "/>
<path style=" stroke:none;fill-rule:nonzero;fill:rgb(13.725491%,40.784314%,25.098041%);fill-opacity:1;" d="M 199.589844 194.617188 L 199.515625 194.699219 L 199.074219 195.179688 C 199.074219 195.179688 199.675781 195.511719 200.222656 195.199219 L 210.714844 204.828125 L 212.53125 202.851562 L 201.40625 192.640625 Z M 199.589844 194.617188 "/>
<path style=" stroke:none;fill-rule:nonzero;fill:rgb(13.725491%,40.784314%,25.098041%);fill-opacity:1;" d="M 226.15625 133.378906 L 226.152344 133.488281 L 226.117188 134.136719 C 226.117188 134.136719 226.792969 134.011719 227.015625 133.421875 L 241.238281 134.164062 L 241.378906 131.480469 L 226.296875 130.699219 Z M 226.15625 133.378906 "/>
<path style=" stroke:none;fill-rule:nonzero;fill:rgb(13.725491%,40.784314%,25.098041%);fill-opacity:1;" d="M 210.484375 180.757812 C 210.484375 180.757812 213.546875 186.679688 217.929688 192.148438 C 211.335938 189.765625 204.742188 188.777344 204.742188 188.777344 L 203.136719 191.023438 C 203.136719 191.023438 210.789062 192.371094 218.855469 195.011719 L 219.683594 193.855469 L 220.109375 193.261719 L 220.113281 193.261719 L 220.941406 192.105469 C 215.835938 185.320312 212.089844 178.515625 212.089844 178.515625 Z M 210.484375 180.757812 "/>
<path style=" stroke:none;fill-rule:nonzero;fill:rgb(13.725491%,40.784314%,25.098041%);fill-opacity:1;" d="M 223.316406 101.289062 C 223.316406 101.289062 227.007812 103.113281 231.164062 104.292969 C 227.800781 107.003906 225.121094 110.132812 225.121094 110.132812 L 225.691406 112.921875 C 225.691406 112.921875 229.511719 108.5625 233.804688 105.121094 L 239.285156 104.003906 L 239.019531 102.6875 L 238.75 101.375 L 233.269531 102.492188 C 227.96875 101.011719 222.746094 98.5 222.746094 98.5 Z M 223.316406 101.289062 "/>
<path style=" stroke:none;fill-rule:nonzero;fill:rgb(13.725491%,40.784314%,25.098041%);fill-opacity:1;" d="M 228.28125 145.617188 C 227.363281 145.4375 226.941406 144.117188 227.171875 142.949219 C 227.398438 141.804688 227.914062 140.539062 229.425781 138.796875 L 227.3125 137.261719 L 226.609375 136.753906 C 226.390625 137.316406 226.609375 137.78125 226.714844 137.949219 C 225.796875 139.113281 225.109375 140.601562 224.785156 142.230469 C 224.125 145.554688 225.347656 148.109375 227.949219 148.625 C 233.261719 149.675781 233.101562 141.207031 236.214844 141.824219 C 237.261719 142.03125 237.761719 143.484375 237.484375 144.882812 C 237.167969 146.46875 235.972656 148.378906 234.304688 149.632812 L 236.382812 151.21875 C 238.125 149.917969 239.445312 147.78125 239.917969 145.410156 C 240.5625 142.148438 239.421875 139.414062 236.625 138.859375 C 231.277344 137.777344 231.308594 146.21875 228.28125 145.617188 "/>
<path style=" stroke:none;fill-rule:nonzero;fill:rgb(13.725491%,40.784314%,25.098041%);fill-opacity:1;" d="M 185.832031 207.09375 C 185.832031 207.09375 186.390625 207.496094 186.972656 207.25 L 196.277344 218.035156 L 198.308594 216.28125 L 191.59375 208.496094 L 188.425781 204.859375 Z M 185.832031 207.09375 "/>
<path style=" stroke:none;fill-rule:nonzero;fill:rgb(13.725491%,40.784314%,25.098041%);fill-opacity:1;" d="M 194.910156 199.265625 L 202.03125 207.519531 L 202.773438 208.378906 C 202.773438 208.378906 201.757812 207.570312 199.679688 207.277344 L 199.683594 207.277344 C 196.078125 206.808594 192.472656 205.941406 190.34375 205.378906 C 191.054688 206.796875 192.503906 208.695312 195.289062 209.351562 C 197.761719 209.851562 201.210938 210.425781 204.847656 210.640625 L 206.8125 208.949219 L 196.945312 197.511719 Z M 194.910156 199.265625 "/>
<path style=" stroke:none;fill-rule:nonzero;fill:rgb(13.725491%,40.784314%,25.098041%);fill-opacity:1;" d="M 185.949219 220.933594 C 188.113281 218.480469 186.867188 215.503906 186.25 214.363281 L 183.070312 209.015625 L 180.765625 210.386719 L 185.328125 218.066406 C 185.902344 219.027344 186.089844 220.027344 185.945312 220.941406 Z M 185.949219 220.933594 "/>
<path style=" stroke:none;fill-rule:nonzero;fill:rgb(13.725491%,40.784314%,25.098041%);fill-opacity:1;" d="M 188.140625 218.214844 L 188.140625 218.210938 C 188.085938 221.6875 183.859375 223.734375 183.859375 223.734375 C 181.933594 224.757812 179.671875 224.167969 178.46875 222.144531 L 173.90625 214.46875 L 171.605469 215.832031 L 176.171875 223.511719 C 178.230469 226.972656 181.730469 227.796875 185.277344 225.6875 C 187.804688 224.1875 188.964844 221.992188 188.667969 219.597656 C 188.519531 218.746094 188.140625 218.214844 188.140625 218.214844 "/>
<path style=" stroke:none;fill-rule:nonzero;fill:rgb(13.725491%,40.784314%,25.098041%);fill-opacity:1;" d="M 234.734375 156.027344 L 234.738281 156.027344 C 234.722656 156.027344 234.707031 156.03125 234.691406 156.035156 C 234.503906 156.074219 234.308594 156.113281 234.113281 156.152344 C 231.894531 156.683594 231.582031 157.75 231.582031 157.75 C 231.640625 157.082031 231.585938 156.519531 231.585938 156.519531 C 231.515625 154.699219 230.34375 153.058594 228.375 152.402344 C 225.417969 151.421875 222.925781 153.128906 221.738281 156.699219 L 220.09375 161.648438 C 219.734375 162.742188 219.40625 163.539062 219.40625 163.539062 C 219.40625 163.539062 221.8125 163.886719 223.699219 158.46875 L 223.90625 157.851562 L 224.035156 157.464844 C 224.78125 155.21875 226.085938 154.378906 227.636719 154.894531 C 229.171875 155.40625 229.621094 156.929688 228.90625 159.082031 L 227.503906 163.292969 L 223.074219 161.820312 C 222.324219 163.304688 221.320312 163.90625 221.164062 163.992188 L 221.148438 164.007812 L 233.824219 168.222656 L 234.671875 165.675781 L 229.800781 164.054688 L 231.257812 159.675781 C 231.316406 159.492188 231.390625 159.1875 231.425781 159.015625 C 234.574219 158.796875 237.230469 157.980469 237.230469 157.980469 L 238.183594 155.105469 C 238.183594 155.105469 236.65625 155.609375 234.734375 156.027344 "/>
<path style=" stroke:none;fill-rule:nonzero;fill:rgb(13.725491%,40.784314%,25.098041%);fill-opacity:1;" d="M 225.496094 180.019531 L 221.992188 178.257812 L 225.917969 170.441406 L 223.757812 169.351562 L 219.828125 177.167969 L 216.738281 175.617188 C 216.652344 175.738281 216.566406 175.851562 216.480469 175.957031 C 216.457031 175.984375 216.4375 176.011719 216.414062 176.039062 C 216.332031 176.136719 216.253906 176.230469 216.171875 176.316406 C 216.167969 176.320312 216.164062 176.324219 216.160156 176.328125 C 216.070312 176.421875 215.980469 176.507812 215.894531 176.589844 C 215.878906 176.601562 215.863281 176.617188 215.851562 176.628906 C 215.765625 176.707031 215.683594 176.777344 215.601562 176.84375 C 214.988281 177.335938 214.511719 177.5 214.511719 177.5 L 215.117188 177.804688 L 215.445312 177.972656 L 218.621094 179.566406 L 220.785156 180.65625 L 224.289062 182.417969 L 226.453125 183.503906 L 227.65625 181.105469 L 232.085938 172.300781 L 229.921875 171.210938 Z M 225.496094 180.019531 "/>
<path style=" stroke:none;fill-rule:nonzero;fill:rgb(13.725491%,40.784314%,25.098041%);fill-opacity:1;" d="M 213.605469 175.421875 C 213.1875 176.234375 212.863281 176.789062 212.863281 176.789062 C 212.863281 176.789062 215.191406 177.480469 217.84375 172.386719 L 220.628906 166.839844 L 218.46875 165.753906 Z M 213.605469 175.421875 "/>
<path style=" stroke:none;fill-rule:nonzero;fill:rgb(13.725491%,40.784314%,25.098041%);fill-opacity:1;" d="M 108.566406 182.585938 L 104 184.542969 L 105.125 186.71875 L 107.09375 186.167969 L 107.082031 194.5 L 110.414062 194.5 L 110.414062 182.585938 Z M 108.566406 182.585938 "/>
<path style=" stroke:none;fill-rule:nonzero;fill:rgb(13.725491%,40.784314%,25.098041%);fill-opacity:1;" d="M 46.328125 46.125 C 46.089844 46.585938 45.878906 46.0625 45.859375 45.335938 C 45.84375 44.59375 45.800781 43.949219 45.34375 43.320312 C 44.894531 42.707031 44.554688 42.578125 43.875 41.539062 C 43.179688 40.496094 40.675781 41.574219 40.21875 42.984375 C 39.75 44.402344 41.910156 45.855469 43.261719 46.652344 C 44.613281 47.449219 45.4375 49.230469 46.554688 50.867188 C 47.667969 52.503906 47.050781 53.011719 46.464844 54.058594 C 45.890625 55.105469 45.554688 54.632812 44.582031 53.789062 C 43.613281 52.933594 43.863281 53.492188 43.109375 52.835938 C 40.261719 50.359375 39.746094 48.960938 39.746094 48.960938 C 39.746094 48.960938 39.355469 47.773438 38.453125 47.980469 C 37.550781 48.191406 37.078125 47.328125 35.214844 48.132812 C 33.351562 48.941406 32.019531 51.589844 33.277344 53.632812 C 34.535156 55.671875 35.925781 55.351562 36.582031 54.921875 C 37.226562 54.492188 39.804688 55.597656 40.40625 56.109375 C 41.007812 56.632812 39.699219 57.042969 39.371094 59.070312 C 39.03125 61.097656 40.410156 61.308594 41.242188 61.847656 C 42.132812 62.425781 42.457031 61.613281 42.921875 61.527344 C 43.398438 61.4375 43.808594 61.582031 44.140625 61.210938 C 44.472656 60.832031 44.746094 60.136719 45.074219 60.019531 C 45.386719 59.914062 46.605469 61.105469 46.328125 61.683594 C 46.042969 62.257812 44.875 63.472656 45.640625 65.0625 C 46.769531 67.40625 48.851562 66.882812 49.738281 65.890625 C 50.613281 64.878906 50.015625 63.296875 50.460938 63.414062 C 52.769531 64.050781 53.9375 62.976562 54.136719 61.492188 C 54.335938 59.996094 52.570312 58.84375 51.730469 58.597656 C 50.890625 58.359375 50.558594 57.980469 50.007812 57.59375 C 49.453125 57.21875 48.625 55.835938 48.511719 54.632812 C 48.402344 53.421875 48.925781 53.210938 49.210938 53.464844 C 49.484375 53.703125 50.289062 54.621094 51.601562 54.953125 C 52.925781 55.28125 53.484375 54.828125 53.832031 54.683594 C 54.171875 54.546875 54.128906 55.546875 54.128906 55.546875 C 54.128906 55.546875 55.054688 54.539062 55.53125 54.011719 C 55.996094 53.464844 56.632812 52.375 56.832031 51.835938 C 57.035156 51.285156 56.722656 50.578125 55.953125 50.175781 C 55.183594 49.78125 54.523438 50.035156 54.054688 50.507812 C 53.582031 50.984375 52.179688 52.984375 51.445312 52.542969 C 51.042969 52.296875 50.078125 50.574219 49.6875 49.621094 C 49.304688 48.675781 49.613281 48.058594 50.101562 46.941406 C 50.582031 45.804688 51.53125 44.972656 50.019531 43.988281 C 48.507812 43.003906 46.5625 45.664062 46.328125 46.125 "/>
<path style=" stroke:none;fill-rule:nonzero;fill:rgb(13.725491%,40.784314%,25.098041%);fill-opacity:1;" d="M 76.28125 41.933594 C 76.183594 42.007812 76.097656 42.070312 76.007812 42.132812 C 75.132812 42.757812 75.171875 43.121094 75.65625 43.652344 C 76.191406 44.21875 76.199219 44.460938 76.882812 44.652344 C 76.882812 44.652344 77.460938 44.585938 77.871094 44.339844 C 77.960938 44.277344 78.058594 44.222656 78.136719 44.152344 C 78.441406 43.890625 78.652344 43.519531 78.34375 42.773438 C 77.960938 41.824219 77.4375 41.195312 76.28125 41.933594 "/>
<path style=" stroke:none;fill-rule:nonzero;fill:rgb(13.725491%,40.784314%,25.098041%);fill-opacity:1;" d="M 75.367188 33.582031 C 75.457031 33.367188 75.539062 33.160156 75.558594 33.019531 C 75.640625 32.542969 76.414062 33.003906 76.296875 33.320312 C 76.246094 33.46875 76.023438 33.730469 75.78125 33.972656 C 75.511719 34.257812 75.210938 34.53125 75.140625 34.574219 C 74.820312 34.777344 75.132812 34.128906 75.367188 33.582031 M 74.800781 23.035156 C 73.40625 23.605469 71.992188 25.519531 70.757812 27.789062 C 70.589844 28.085938 70.421875 28.414062 70.261719 28.746094 C 69.472656 30.394531 68.707031 32.347656 67.785156 34.027344 C 67.496094 34.558594 67.1875 35.0625 66.871094 35.519531 C 65.3125 37.707031 65.191406 36.765625 64.851562 37.484375 C 64.539062 38.117188 64.492188 39.414062 64.980469 39.945312 L 65.058594 40.023438 C 65.105469 40.050781 65.15625 40.085938 65.203125 40.113281 C 65.335938 40.167969 66.5 40.65625 67.039062 40.554688 C 67.578125 40.464844 67.332031 40.289062 68 40.023438 C 68.664062 39.753906 68.679688 39.558594 69.332031 38.75 C 69.800781 38.179688 70.578125 33.910156 70.707031 33.234375 C 70.851562 32.554688 72.695312 29.28125 72.84375 29.40625 C 73.03125 29.570312 72.8125 29.890625 72.90625 30.566406 C 72.933594 30.746094 72.925781 30.980469 72.894531 31.238281 C 72.832031 31.964844 72.65625 32.9375 72.742188 33.703125 C 72.855469 34.726562 72.695312 35.289062 73.671875 36.894531 C 74.652344 38.507812 75.738281 36.742188 75.855469 36.710938 C 75.980469 36.683594 76.101562 36.796875 76.515625 37.277344 C 76.953125 37.75 77.855469 39.175781 78.199219 39.65625 C 78.71875 40.390625 79.171875 40.949219 78.882812 41.300781 C 78.753906 41.464844 78.476562 41.730469 78.484375 42.007812 C 78.492188 42.359375 78.839844 42.71875 79.179688 42.867188 C 79.804688 43.128906 79.871094 43.691406 80.582031 43.8125 C 81.304688 43.925781 82.289062 42.675781 82.027344 42.242188 C 81.753906 41.808594 80.90625 40.25 80.605469 39.753906 C 80.296875 39.25 80.160156 38.292969 80.171875 38.132812 C 80.171875 38.117188 80.238281 38.066406 80.398438 38.34375 C 80.492188 38.488281 80.597656 38.675781 80.757812 38.886719 C 80.945312 39.136719 81.246094 39.375 81.640625 39.519531 C 82.179688 39.71875 82.875 39.734375 83.707031 39.339844 C 85.125 38.65625 84.988281 36.628906 83.15625 36.546875 C 81.3125 36.472656 80.503906 37.332031 80.144531 37.875 C 80.109375 37.929688 79.945312 38.039062 79.917969 38.070312 C 79.726562 38.316406 78.695312 35.261719 78.652344 34.738281 C 78.613281 34.21875 79.226562 34.027344 79.082031 33.332031 C 78.941406 32.640625 78.429688 32.398438 78.378906 32.011719 C 78.324219 31.558594 78.808594 30.835938 78.195312 29.824219 C 77.589844 28.824219 76.625 29.136719 75.585938 29.992188 C 75.042969 30.445312 73.96875 33.597656 73.800781 33.324219 C 73.601562 32.992188 73.519531 32.445312 73.515625 31.828125 C 73.507812 30.75 73.710938 29.5 73.859375 28.96875 C 74.09375 28.152344 75.558594 26.105469 76.6875 24.917969 C 77.804688 23.734375 76.195312 22.453125 74.800781 23.035156 "/>
<path style=" stroke:none;fill-rule:nonzero;fill:rgb(13.725491%,40.784314%,25.098041%);fill-opacity:1;" d="M 69.75 23.113281 C 69.75 23.113281 70.179688 22.535156 70.605469 21.953125 C 71.027344 21.371094 71.03125 20.914062 70.675781 20.164062 C 70.308594 19.417969 68.957031 19.007812 67.554688 19.722656 C 66.152344 20.433594 66.308594 21.308594 67.070312 22.402344 C 67.835938 23.507812 69.132812 23.3125 69.75 23.113281 "/>
<path style=" stroke:none;fill-rule:nonzero;fill:rgb(13.725491%,40.784314%,25.098041%);fill-opacity:1;" d="M 120.589844 23.472656 C 119.933594 23.542969 118.480469 23.457031 117.285156 23.222656 C 116.097656 22.992188 114.609375 22.164062 114.621094 21.894531 C 114.632812 21.621094 114.085938 18.953125 114.050781 18.601562 C 114.019531 18.261719 115.9375 17.238281 116.207031 17.132812 C 116.464844 17.027344 116.371094 16.5 116.195312 15.929688 C 116.027344 15.367188 114.535156 15.238281 114.246094 15.109375 C 113.960938 14.992188 114.175781 14.335938 114.117188 13.878906 C 113.792969 11.292969 114.867188 10.882812 114.65625 9.929688 C 114.445312 8.972656 113.222656 9.289062 112.707031 9.578125 C 112.1875 9.867188 112 9.925781 112.058594 10.421875 C 112.101562 10.921875 112.089844 11.203125 112.144531 11.699219 C 112.191406 12.199219 112.402344 15.457031 112.464844 15.992188 C 112.523438 16.539062 112.484375 16.226562 111.917969 17.144531 C 111.34375 18.0625 108.347656 20.707031 107.867188 21.027344 C 107.394531 21.34375 107.324219 19.164062 107.515625 18.367188 C 107.710938 17.570312 108.792969 16.375 109.667969 16.121094 C 110.539062 15.878906 110.796875 15.304688 110.632812 14.859375 C 110.511719 14.527344 108.707031 14.070312 108.324219 13.761719 C 107.9375 13.453125 107.9375 13.453125 107.8125 12.953125 C 107.679688 12.460938 107.53125 9.636719 107.496094 9.285156 C 107.457031 8.945312 106.535156 8.367188 105.824219 8.25 C 105.109375 8.128906 103.707031 9.28125 103.691406 9.832031 C 103.667969 10.375 103.371094 10.957031 103.761719 11.734375 C 104.15625 12.519531 104.582031 14.023438 104.710938 15.304688 C 104.847656 16.574219 104.132812 17.3125 103.273438 18.019531 C 102.40625 18.730469 102.742188 18.582031 101.761719 19.265625 C 100.777344 19.949219 98.359375 20.410156 98.699219 20.984375 C 99.832031 22.851562 101.15625 22.566406 101.507812 22.53125 C 101.859375 22.488281 102.390625 22.355469 102.832031 22.082031 C 103.269531 21.800781 103.839844 21.273438 104.074219 21.292969 C 104.304688 21.304688 104.035156 22.070312 103.953125 22.824219 C 103.871094 23.570312 102.300781 26.457031 100.828125 28.128906 C 99.960938 29.117188 100.507812 29.601562 101.699219 29.761719 C 102.878906 29.914062 104.554688 27.207031 104.570312 26.894531 C 104.574219 26.585938 104.871094 26.433594 104.953125 26.546875 C 105.046875 26.65625 105.265625 29.164062 105.363281 29.742188 C 105.457031 30.3125 105.414062 30.199219 105.691406 30.679688 C 105.972656 31.160156 106.402344 31.539062 107.421875 31.59375 C 108.441406 31.648438 108.265625 30.660156 108.027344 29.902344 C 107.796875 29.144531 107.332031 25.328125 107.320312 24.902344 C 107.324219 24.472656 107.386719 23.921875 107.644531 23.816406 C 107.902344 23.714844 108.625 23.832031 108.929688 23.808594 C 109.242188 23.773438 109.457031 22.539062 109.421875 22.117188 C 109.339844 21.152344 112.179688 19.335938 112.207031 19.605469 C 112.234375 19.882812 112.234375 20.347656 112.21875 20.890625 C 112.179688 22.148438 110.8125 24.699219 110.640625 25.304688 C 110.464844 25.90625 108.667969 26.984375 108.410156 27.515625 C 108.152344 28.050781 108.347656 28.457031 108.621094 28.859375 C 108.894531 29.261719 109.53125 29 109.769531 28.628906 C 110.011719 28.25 110.335938 27.671875 110.59375 27.136719 C 110.851562 26.605469 111.078125 26.160156 111.40625 25.582031 C 111.738281 24.992188 112.621094 22.457031 112.960938 25.144531 C 113.070312 26.03125 113.148438 28.089844 113.296875 29.554688 C 113.445312 31.019531 114.238281 31.53125 114.738281 31.90625 C 115.246094 32.289062 115.980469 31.464844 115.910156 30.691406 C 115.828125 29.921875 114.980469 26.5 114.871094 25.894531 C 114.753906 25.230469 114.519531 24.769531 115.011719 24.636719 C 115.503906 24.511719 116.039062 25.457031 117.054688 25.503906 C 118.074219 25.558594 120.246094 24.964844 120.574219 24.457031 C 120.917969 23.925781 121.617188 23.996094 121.851562 23.539062 C 122.074219 23.082031 121.246094 23.40625 120.589844 23.472656 "/>
<path style=" stroke:none;fill-rule:nonzero;fill:rgb(13.725491%,40.784314%,25.098041%);fill-opacity:1;" d="M 146.707031 22.472656 C 146.4375 22.898438 145.046875 25.074219 144.917969 25.296875 C 144.78125 25.53125 144.589844 25.601562 144.53125 25.339844 C 144.453125 25.011719 143.695312 24.5 143.582031 24.308594 C 143.46875 24.097656 144.523438 21.855469 144.757812 21.613281 C 144.792969 21.582031 144.828125 21.558594 144.882812 21.539062 C 145.28125 21.378906 146.292969 21.417969 146.597656 21.550781 C 146.953125 21.707031 146.976562 22.03125 146.707031 22.472656 M 143.789062 28.160156 C 143.699219 28.199219 143.484375 28.191406 143.292969 28.175781 C 143.105469 28.148438 142.945312 28.132812 142.945312 28.132812 C 142.878906 27.714844 142.933594 27.402344 142.980469 27.085938 C 143.027344 26.765625 143.226562 26.445312 143.574219 26.320312 C 143.628906 26.304688 143.695312 26.289062 143.75 26.269531 C 144.03125 26.214844 144.285156 26.265625 144.242188 26.574219 C 144.183594 26.941406 143.980469 28.09375 143.789062 28.160156 M 141.710938 23.347656 C 141.679688 23.339844 141.648438 23.34375 141.621094 23.335938 C 141.484375 23.304688 141.355469 23.199219 141.445312 22.78125 C 141.523438 22.410156 141.945312 22.53125 142.007812 22.535156 C 142.222656 22.578125 141.902344 23.351562 141.710938 23.347656 M 152.679688 9.09375 C 151.46875 8.832031 150.457031 9.832031 150.355469 10.46875 C 150.253906 11.109375 149.902344 11.632812 149.671875 12.296875 C 149.441406 12.957031 149.035156 13.621094 149.035156 13.621094 C 149.035156 13.621094 149.59375 13.128906 149.960938 12.714844 C 150.320312 12.296875 150.550781 12.105469 150.738281 12.386719 C 150.917969 12.667969 149.28125 16.925781 148.882812 17.507812 C 148.496094 18.101562 147.429688 20.097656 147.113281 20.351562 C 146.796875 20.601562 146.21875 20.78125 145.585938 20.664062 C 145.390625 20.625 145.238281 20.578125 145.132812 20.511719 C 144.867188 20.359375 144.816406 20.109375 144.886719 19.652344 C 144.992188 18.988281 145.46875 16.453125 145.769531 15.980469 C 146.035156 15.542969 146.066406 15.332031 146.429688 15.101562 C 146.464844 15.082031 146.515625 15.050781 146.5625 15.019531 C 147.058594 14.75 147.960938 14.289062 148.21875 14.023438 C 148.484375 13.769531 148.609375 13.480469 148.742188 13.128906 C 148.867188 12.769531 148.890625 12.117188 148.371094 11.335938 C 147.988281 10.78125 147.226562 10.363281 147.011719 10.199219 C 146.488281 9.808594 145.460938 9.804688 144.785156 10.136719 C 144.476562 10.277344 144.238281 10.5 144.167969 10.789062 C 144.035156 11.261719 144.179688 11.675781 144.34375 11.984375 C 144.496094 12.246094 144.65625 12.4375 144.695312 12.527344 C 144.761719 12.710938 144.722656 12.976562 144.589844 13.480469 C 144.464844 13.996094 143.070312 19.390625 143.027344 19.6875 C 142.976562 19.984375 142.878906 20.320312 142.636719 20.601562 C 142.535156 20.710938 142.390625 20.800781 142.214844 20.859375 C 141.933594 20.964844 141.597656 21.03125 141.34375 21.09375 C 140.886719 21.21875 138.628906 20.953125 138.574219 21.269531 C 138.527344 21.585938 138.164062 22.375 138.695312 23.628906 C 139.226562 24.886719 140.054688 25.015625 140.464844 24.988281 C 140.773438 24.980469 141.015625 24.917969 141.171875 25.191406 C 141.226562 25.277344 141.269531 25.398438 141.300781 25.570312 C 141.425781 26.277344 141.070312 27.925781 141.230469 28.386719 C 141.429688 28.976562 139.066406 28.25 138.222656 28.242188 C 137.375 28.234375 137.367188 30.316406 137.699219 30.828125 C 138.222656 31.632812 138.964844 31.757812 139.617188 31.679688 C 140.148438 31.613281 140.617188 31.417969 140.867188 31.320312 C 141.207031 31.1875 141.898438 30.996094 142.609375 30.984375 C 143.078125 30.960938 147.703125 31.394531 148.109375 31.53125 C 148.507812 31.667969 149.402344 31.4375 149.808594 30.722656 C 150.226562 30.011719 149.746094 28.738281 148.9375 28.632812 C 148.128906 28.535156 144.789062 28.394531 144.828125 28.144531 C 144.867188 27.898438 146.035156 25.824219 146.449219 25.265625 C 146.859375 24.695312 148.148438 24.851562 148.644531 24.878906 C 149.140625 24.90625 149.242188 24.917969 149.726562 24.695312 C 150.210938 24.472656 150.761719 24.152344 151.121094 23.933594 C 151.375 23.777344 152.109375 23.152344 152.320312 22.359375 L 152.34375 22.261719 C 152.40625 21.960938 152.398438 21.648438 152.25 21.328125 C 151.726562 20.089844 149.195312 20.019531 148.75 20.160156 C 148.308594 20.289062 148.621094 20.003906 148.894531 19.574219 C 149.160156 19.136719 152.316406 13.332031 152.710938 12.941406 C 153.09375 12.550781 153.484375 12.164062 154.175781 11.886719 C 154.867188 11.621094 154.785156 11.179688 154.839844 10.710938 C 154.878906 10.246094 153.886719 9.363281 152.679688 9.09375 "/>
<path style=" stroke:none;fill-rule:nonzero;fill:rgb(13.725491%,40.784314%,25.098041%);fill-opacity:1;" d="M 198.417969 61.257812 C 197.992188 61.519531 197.125 61.300781 196.957031 61.214844 C 196.890625 61.175781 196.835938 61.117188 196.820312 61.050781 C 196.75 60.605469 197.644531 60.757812 197.890625 60.640625 C 198.324219 60.347656 199 60.527344 199.113281 60.640625 C 199.167969 60.699219 199.195312 60.761719 199.191406 60.835938 C 199.179688 61.066406 198.695312 61.089844 198.417969 61.257812 M 203.851562 61.566406 C 203.425781 61.09375 202.28125 60.003906 202.125 59.84375 C 201.8125 59.519531 201.984375 58.988281 202.246094 58.65625 C 202.746094 58.023438 204.234375 57.847656 204.792969 57.738281 C 205.503906 57.59375 205.632812 57.199219 205.640625 57.1875 C 205.761719 56.890625 205.078125 56.113281 204.648438 55.90625 C 204.222656 55.695312 204.230469 55.71875 203.625 55.34375 C 203.023438 54.976562 203.152344 54.871094 202.921875 54.8125 C 202.695312 54.777344 202.035156 55.074219 201.941406 55.398438 C 201.847656 55.722656 202 55.894531 202.207031 56.128906 C 202.410156 56.347656 203.191406 56.402344 203.371094 56.496094 C 203.539062 56.597656 203.730469 56.992188 203.253906 57.035156 C 202.765625 57.09375 201.871094 57.332031 201.394531 57.792969 C 201.195312 57.988281 201.046875 58.242188 200.933594 58.488281 C 200.734375 58.902344 200.640625 59.226562 200.640625 59.226562 C 200.640625 59.226562 200.058594 58.894531 199.601562 58.863281 C 199.257812 58.839844 196.253906 58.566406 195.953125 58.742188 C 195.640625 58.921875 194.984375 59.925781 194.945312 60.089844 C 194.886719 60.273438 194.851562 60.535156 194.808594 60.917969 C 194.773438 61.238281 194.960938 62.335938 195.019531 62.597656 C 195.105469 63.101562 195.683594 63.324219 197.007812 62.867188 C 197.285156 62.792969 198.378906 62.6875 198.675781 62.585938 C 199.441406 62.328125 200.449219 61.601562 200.449219 61.601562 C 200.449219 61.601562 201.609375 61.816406 203.191406 63.398438 C 203.625 63.832031 203.949219 62.964844 204.207031 62.667969 C 204.476562 62.382812 204.300781 62.035156 203.851562 61.566406 "/>
<path style=" stroke:none;fill-rule:nonzero;fill:rgb(13.725491%,40.784314%,25.098041%);fill-opacity:1;" d="M 207.546875 52.582031 C 207.542969 52.535156 207.546875 52.5 207.570312 52.457031 C 207.664062 52.230469 209.082031 51.527344 209.652344 51.0625 C 210.234375 50.597656 211.488281 50.234375 211.691406 50.398438 C 211.886719 50.550781 210.976562 51.402344 210.890625 51.574219 C 210.765625 51.78125 210.566406 52.820312 210.234375 52.882812 C 209.894531 52.953125 207.527344 53.246094 207.546875 52.582031 M 207.917969 49.371094 C 207.621094 49.632812 206.855469 50.003906 206.855469 50.003906 C 206.890625 49.816406 206.894531 49.703125 206.953125 49.605469 C 207.015625 49.515625 207.113281 49.429688 207.292969 49.300781 C 207.710938 48.996094 207.976562 48.960938 208.144531 48.917969 C 208.289062 48.875 208.21875 49.089844 207.960938 49.335938 C 207.953125 49.351562 207.929688 49.355469 207.917969 49.371094 M 213.089844 58.332031 C 213.300781 58.050781 213.015625 57.550781 212.589844 57.039062 C 212.363281 56.769531 211.214844 55.601562 210.273438 55.003906 C 209.320312 54.398438 208.441406 53.792969 208.097656 53.667969 C 207.753906 53.542969 208.199219 53.507812 208.578125 53.578125 C 208.964844 53.640625 210.507812 53.949219 210.699219 54.171875 C 210.902344 54.394531 211.824219 54.664062 212.34375 54.507812 C 212.851562 54.351562 213.03125 53.09375 213.03125 52.636719 C 213.011719 52.175781 213.171875 52.105469 213.679688 51.761719 C 214.390625 51.273438 214.90625 51.230469 215.445312 51.238281 C 215.992188 51.261719 218.769531 51.71875 219.117188 51.675781 C 219.472656 51.625 219.527344 51.203125 219.390625 51 C 219.242188 50.800781 218.949219 50.246094 218.792969 50.058594 C 218.632812 49.863281 219.191406 49.042969 219.351562 48.75 C 219.636719 48.242188 219.160156 47.890625 218.789062 47.535156 C 218.410156 47.183594 218.253906 47.449219 217.730469 47.566406 C 217.226562 47.6875 215.921875 48.492188 215.457031 48.675781 C 214.988281 48.859375 212.691406 49.398438 211.996094 49.480469 C 211.320312 49.554688 210.136719 49.785156 210.238281 49.675781 C 210.339844 49.550781 210.722656 49.472656 211.089844 49.222656 C 211.449219 48.964844 213.40625 48.085938 214.292969 47.824219 C 214.515625 47.765625 214.703125 47.644531 214.839844 47.496094 C 215.246094 47.082031 215.261719 46.417969 214.898438 46.011719 C 214.433594 45.476562 213.832031 45.28125 213.417969 45.257812 C 213 45.226562 212.277344 45.335938 212.136719 45.652344 C 211.992188 45.972656 212.230469 46.328125 212.304688 46.523438 C 212.371094 46.722656 212.261719 46.667969 211.890625 46.984375 C 211.511719 47.308594 211.449219 47.304688 211.09375 47.542969 C 210.75 47.777344 211.40625 46.777344 211.652344 46.269531 C 211.898438 45.757812 211.726562 45.6875 211.613281 45.09375 C 211.496094 44.515625 211.292969 44.03125 210.554688 43.554688 C 210.226562 43.347656 209.957031 43.238281 209.707031 43.292969 L 209.675781 43.300781 C 209.398438 43.386719 209.140625 43.683594 208.816406 44.257812 C 208.199219 45.394531 207.222656 46.445312 206.320312 47.105469 C 205.414062 47.753906 204.292969 48.339844 203.648438 49.050781 C 203.113281 49.613281 203.132812 50.039062 203.332031 50.570312 C 203.394531 50.703125 203.453125 50.839844 203.527344 50.988281 C 203.769531 51.484375 204.585938 51.398438 204.828125 51.382812 C 205.078125 51.359375 205.25 51.113281 205.433594 50.957031 C 205.617188 50.789062 205.851562 50.941406 205.808594 51.191406 C 205.75 51.421875 205.578125 52.054688 205.441406 52.148438 C 205.183594 52.332031 204.730469 52.617188 204.308594 52.429688 C 203.878906 52.246094 202.148438 51.378906 201.546875 51.050781 C 201.308594 50.921875 201.097656 50.800781 200.960938 50.703125 C 200.460938 50.355469 200.617188 50.089844 200.359375 49.785156 C 200.101562 49.496094 199.40625 48.914062 198.910156 48.890625 C 198.433594 48.851562 197.441406 48.910156 197.035156 49.847656 C 196.332031 51.480469 198.261719 51.867188 198.261719 51.867188 C 199.460938 52.019531 205.777344 53.847656 206.078125 53.859375 C 206.421875 53.890625 206.839844 53.882812 207.261719 53.9375 C 208.246094 54.023438 210.757812 56.078125 210.832031 56.15625 C 211.449219 56.835938 211.398438 57.058594 210.03125 57.1875 C 209.097656 57.269531 207.828125 57.007812 207.125 56.835938 C 206.792969 56.757812 206.585938 56.695312 206.585938 56.695312 C 206.6875 56.765625 206.789062 56.832031 206.890625 56.898438 C 207.605469 57.332031 208.417969 57.640625 209.261719 57.929688 C 209.539062 58.023438 209.828125 58.128906 210.117188 58.230469 C 211.382812 58.65625 212.789062 58.769531 213.089844 58.332031 "/>
<path style=" stroke:none;fill-rule:nonzero;fill:rgb(13.725491%,40.784314%,25.098041%);fill-opacity:1;" d="M 183.007812 47.289062 C 182.839844 47.058594 182.351562 47.042969 181.835938 46.597656 C 181.304688 46.152344 179.554688 43.78125 179.171875 42.667969 C 178.792969 41.539062 177.574219 37.480469 177.535156 37.195312 C 177.496094 36.898438 177.578125 36.695312 177.753906 36.183594 C 177.921875 35.683594 178.164062 35.296875 178.742188 34.625 C 179.320312 33.949219 180.257812 33.539062 181.144531 33.875 C 182.039062 34.21875 183.316406 34.894531 183.59375 35.09375 C 183.878906 35.285156 183.832031 35.25 184.121094 35.226562 C 184.417969 35.183594 184.429688 35.128906 184.75 35.03125 C 185.089844 34.9375 185.183594 34.800781 185.109375 34.59375 C 185.039062 34.402344 184.933594 34.175781 184.65625 33.425781 C 184.375 32.675781 183.796875 32.300781 183.527344 32.261719 C 183.253906 32.222656 182.753906 31.777344 182.363281 31.34375 C 181.984375 30.921875 182.867188 29.769531 183.230469 29.25 C 183.597656 28.730469 184.824219 28.003906 185.277344 27.773438 C 185.792969 27.515625 186.660156 27.011719 187.15625 26.421875 C 187.753906 25.714844 187.941406 25.328125 187.867188 24.652344 C 187.800781 24.050781 187.371094 23.714844 186.917969 23.429688 C 186.472656 23.152344 185.277344 22.765625 184.789062 22.898438 C 184.316406 23.046875 184.121094 23.707031 184.117188 24.308594 C 184.132812 24.898438 184.273438 25.171875 184 25.554688 C 183.746094 25.9375 183.195312 26.558594 182.898438 26.894531 C 182.613281 27.230469 181.507812 28.664062 180.8125 29.363281 C 180.105469 30.078125 178.460938 31.464844 177.96875 31.3125 C 177.492188 31.152344 177.152344 31.039062 176.144531 30.261719 C 175.140625 29.492188 174.320312 29.953125 174.03125 30.378906 C 173.738281 30.792969 173.351562 31.320312 173.441406 31.660156 C 173.546875 31.988281 173.828125 32.003906 174.046875 32.191406 C 174.6875 32.574219 175.328125 33.523438 175.414062 33.792969 C 175.496094 34.050781 174.851562 34.519531 174.726562 34.601562 C 174.601562 34.699219 172.082031 36.609375 171.785156 36.789062 C 171.480469 36.957031 168.039062 38.605469 167.085938 38.613281 C 166.136719 38.613281 166.234375 38.351562 165.9375 37.796875 C 165.640625 37.238281 165.03125 37.101562 164.730469 37.222656 C 164.4375 37.351562 164.367188 37.621094 164.191406 37.921875 C 164.019531 38.21875 163.8125 38.5 163.902344 38.800781 C 164.5 40.714844 167.390625 40.800781 168.078125 40.796875 C 171.648438 40.777344 175.167969 36.445312 175.964844 36.957031 C 176.601562 37.367188 176.539062 38.164062 176.617188 38.519531 C 176.703125 38.863281 176.835938 43.105469 177.042969 44.171875 C 177.257812 45.230469 177.488281 46.277344 177.980469 46.609375 C 178.457031 46.9375 180.191406 47.265625 180.492188 47.429688 C 180.796875 47.574219 180.851562 47.722656 181.15625 47.820312 C 181.480469 47.917969 182.335938 47.742188 182.804688 47.714844 C 183.28125 47.671875 183.175781 47.519531 183.007812 47.289062 "/>
<path style=" stroke:none;fill-rule:nonzero;fill:rgb(13.725491%,40.784314%,25.098041%);fill-opacity:1;" d="M 130.410156 187.882812 L 130.566406 185.550781 L 135.800781 185.550781 L 135.800781 182.753906 L 127.8125 182.753906 L 127.144531 190.898438 C 127.144531 190.898438 128.628906 190.507812 130.433594 190.609375 C 132.011719 190.699219 133.484375 191.453125 133.53125 192.785156 C 133.570312 193.992188 132.351562 194.667969 131.242188 194.867188 C 130.050781 195.082031 128.441406 194.800781 127.660156 194.488281 L 126.992188 197.105469 C 127.929688 197.597656 130.222656 197.839844 131.703125 197.597656 C 134.984375 197.0625 136.625 195.261719 136.625 192.523438 C 136.625 190.269531 134.972656 187.726562 130.410156 187.882812 "/>
<path style=" stroke:none;fill-rule:nonzero;fill:rgb(13.725491%,40.784314%,25.098041%);fill-opacity:1;" d="M 143.652344 191.902344 C 143.652344 191.902344 148.128906 188.714844 148.128906 186.175781 C 148.128906 184.164062 146.417969 182.601562 143.738281 182.601562 C 141.808594 182.601562 139.960938 183.433594 138.683594 184.515625 L 140.101562 186.972656 C 141.132812 185.992188 142.417969 185.40625 143.460938 185.40625 C 144.425781 185.40625 145 185.890625 144.972656 186.605469 C 144.914062 188.273438 139.128906 192.347656 139.128906 192.347656 L 138.890625 194.679688 L 148.480469 194.679688 L 148.863281 191.902344 Z M 143.652344 191.902344 "/>
<path style=" stroke:none;fill-rule:nonzero;fill:rgb(13.725491%,40.784314%,25.098041%);fill-opacity:1;" d="M 118.828125 189.648438 C 117.554688 189.648438 116.957031 188.59375 116.957031 187.460938 C 116.957031 186.097656 117.667969 185.027344 118.839844 185.027344 C 120.160156 185.027344 120.894531 186.269531 120.875 187.316406 C 120.894531 188.394531 120.265625 189.648438 118.828125 189.648438 M 118.804688 182.328125 C 115.878906 182.339844 113.855469 184.644531 113.855469 187.441406 C 113.855469 190.03125 115.523438 192.121094 118.09375 192.121094 C 119.527344 192.121094 120.746094 191.5625 121.371094 190.675781 C 121.535156 192.722656 120.617188 194.433594 118.492188 194.90625 C 117.550781 195.117188 116.234375 194.96875 115.558594 194.679688 L 114.890625 197.296875 C 116.003906 197.789062 117.886719 197.910156 119.28125 197.558594 C 122.839844 196.660156 124.355469 193.84375 124.355469 189.609375 C 124.355469 185.546875 122.488281 182.308594 118.804688 182.328125 "/>
<path style=" stroke:none;fill-rule:nonzero;fill:rgb(13.725491%,40.784314%,25.098041%);fill-opacity:1;" d="M 126.101562 2.386719 C 57.757812 2.386719 2.152344 57.992188 2.152344 126.335938 C 2.152344 194.683594 57.757812 250.285156 126.101562 250.285156 C 194.445312 250.285156 250.050781 194.683594 250.050781 126.335938 C 250.050781 57.992188 194.445312 2.386719 126.101562 2.386719 M 126.101562 252.332031 C 56.628906 252.332031 0.105469 195.808594 0.105469 126.335938 C 0.105469 56.863281 56.628906 0.339844 126.101562 0.339844 C 195.574219 0.339844 252.097656 56.863281 252.097656 126.335938 C 252.097656 195.808594 195.574219 252.332031 126.101562 252.332031 "/>
<path style=" stroke:none;fill-rule:nonzero;fill:rgb(13.725491%,40.784314%,25.098041%);fill-opacity:1;" d="M 126.101562 36.695312 C 76.671875 36.695312 36.460938 76.910156 36.460938 126.335938 C 36.460938 175.765625 76.671875 215.976562 126.101562 215.976562 C 175.53125 215.976562 215.742188 175.765625 215.742188 126.335938 C 215.742188 76.910156 175.53125 36.695312 126.101562 36.695312 M 126.101562 218.023438 C 75.542969 218.023438 34.414062 176.894531 34.414062 126.335938 C 34.414062 75.78125 75.542969 34.648438 126.101562 34.648438 C 176.65625 34.648438 217.789062 75.78125 217.789062 126.335938 C 217.789062 176.894531 176.65625 218.023438 126.101562 218.023438 "/>
<path style=" stroke:none;fill-rule:nonzero;fill:rgb(13.725491%,40.784314%,25.098041%);fill-opacity:1;" d="M 126.101562 101.410156 C 126.101562 101.410156 147.566406 121.21875 175.914062 138.070312 L 175.921875 119.578125 C 144.914062 99.960938 126.101562 80.996094 126.101562 80.996094 C 126.101562 80.996094 107.285156 99.960938 76.28125 119.578125 L 76.289062 138.070312 C 104.636719 121.21875 126.101562 101.410156 126.101562 101.410156 "/>
<path style=" stroke:none;fill-rule:nonzero;fill:rgb(13.725491%,40.784314%,25.098041%);fill-opacity:1;" d="M 126.101562 68.394531 C 126.101562 68.394531 143.027344 85.472656 163.722656 98.65625 L 163.730469 80.835938 C 140.820312 64.363281 126.101562 47.980469 126.101562 47.980469 C 126.101562 47.980469 111.382812 64.363281 88.46875 80.835938 L 88.476562 98.65625 C 109.171875 85.472656 126.101562 68.394531 126.101562 68.394531 "/>
<path style=" stroke:none;fill-rule:nonzero;fill:rgb(13.725491%,40.784314%,25.098041%);fill-opacity:1;" d="M 126.101562 157.84375 C 118.722656 151.9375 104.433594 151.570312 104.433594 151.570312 L 126.101562 134.425781 L 147.769531 151.570312 C 147.769531 151.570312 133.480469 151.9375 126.101562 157.84375 M 192.011719 153.121094 L 178.039062 153.121094 C 153.488281 139.769531 126.101562 114.011719 126.101562 114.011719 C 126.101562 114.011719 98.710938 139.769531 74.160156 153.121094 L 60.1875 153.121094 L 51.898438 167.492188 C 51.898438 167.492188 57.417969 170.433594 68.667969 169.085938 C 72.808594 168.59375 82.367188 166.53125 93.246094 166.207031 C 101.292969 165.964844 111.363281 167.289062 116.425781 172.347656 L 126.101562 172.34375 L 135.777344 172.347656 C 140.839844 167.289062 150.90625 165.964844 158.957031 166.207031 C 169.832031 166.53125 179.390625 168.59375 183.535156 169.085938 C 194.78125 170.433594 200.300781 167.492188 200.300781 167.492188 Z M 192.011719 153.121094 "/>
<path style=" stroke:none;fill-rule:nonzero;fill:rgb(13.725491%,40.784314%,25.098041%);fill-opacity:1;" d="M 37.175781 185.910156 L 34.890625 186.011719 C 34.890625 186.011719 34.957031 186.871094 35.945312 188.078125 C 36.0625 188.21875 36.238281 188.414062 36.453125 188.652344 L 33.878906 190.292969 C 32.824219 189.738281 31.5625 188.460938 30.882812 187.390625 C 28.800781 184.128906 29.535156 181.527344 32.230469 179.8125 C 34.960938 178.070312 37.921875 178.878906 39.734375 181.722656 C 40.722656 183.273438 41.210938 185.332031 40.925781 186.867188 L 43.464844 187.074219 C 43.773438 185.085938 43.175781 182.53125 41.777344 180.421875 C 38.765625 175.871094 34.480469 175.164062 30.792969 177.515625 C 27.101562 179.863281 25.730469 183.980469 28.660156 188.578125 C 29.945312 190.597656 32.042969 192.371094 33.867188 193.046875 L 39.453125 189.484375 L 38.210938 187.535156 Z M 37.175781 185.910156 "/>
<path style=" stroke:none;fill-rule:nonzero;fill:rgb(13.725491%,40.784314%,25.098041%);fill-opacity:1;" d="M 26.082031 133.398438 L 26.070312 133.289062 L 26.015625 132.640625 C 26.015625 132.640625 25.363281 132.859375 25.222656 133.472656 L 11.050781 134.710938 L 11.28125 137.382812 L 26.3125 136.070312 Z M 26.082031 133.398438 "/>
<path style=" stroke:none;fill-rule:nonzero;fill:rgb(13.725491%,40.784314%,25.098041%);fill-opacity:1;" d="M 29.324219 152.496094 L 29.292969 152.390625 L 29.117188 151.765625 C 29.117188 151.765625 28.519531 152.105469 28.5 152.730469 L 14.808594 156.621094 L 15.542969 159.199219 L 30.058594 155.078125 Z M 29.324219 152.496094 "/>
<path style=" stroke:none;fill-rule:nonzero;fill:rgb(13.725491%,40.784314%,25.098041%);fill-opacity:1;" d="M 27.722656 145.640625 L 27.703125 145.535156 L 27.589844 144.894531 C 27.589844 144.894531 26.960938 145.167969 26.878906 145.792969 L 25.34375 146.0625 L 24.535156 146.207031 L 17.597656 147.433594 C 16.195312 147.679688 15.011719 146.957031 14.761719 145.535156 C 14.550781 144.34375 15.007812 143.070312 15.914062 141.878906 L 13.792969 140.75 C 12.667969 142.039062 11.949219 143.855469 12.308594 145.894531 C 12.855469 148.992188 14.941406 150.625 18 150.085938 L 28.191406 148.285156 Z M 27.722656 145.640625 "/>
<path style=" stroke:none;fill-rule:nonzero;fill:rgb(13.725491%,40.784314%,25.098041%);fill-opacity:1;" d="M 30.910156 158.175781 C 30.910156 158.175781 30.359375 158.585938 30.414062 159.210938 L 17.289062 164.71875 L 18.328125 167.191406 L 27.800781 163.214844 L 32.234375 161.332031 Z M 30.910156 158.175781 "/>
<path style=" stroke:none;fill-rule:nonzero;fill:rgb(13.725491%,40.784314%,25.098041%);fill-opacity:1;" d="M 35.546875 169.222656 L 25.503906 173.4375 L 24.457031 173.875 C 24.457031 173.875 25.539062 173.164062 26.460938 171.277344 L 26.460938 171.28125 C 28.019531 168 29.953125 164.84375 31.148438 162.992188 C 29.582031 163.230469 27.328125 164.019531 25.847656 166.464844 C 24.605469 168.65625 22.992188 171.761719 21.667969 175.148438 L 22.667969 177.535156 L 36.585938 171.695312 Z M 35.546875 169.222656 "/>
<path style=" stroke:none;fill-rule:nonzero;fill:rgb(13.725491%,40.784314%,25.098041%);fill-opacity:1;" d="M 14.867188 107.285156 L 15.78125 102.292969 L 19.71875 103.011719 L 18.804688 108.003906 C 18.496094 109.808594 17.691406 110.957031 16.386719 110.71875 C 15 110.464844 14.515625 109.082031 14.867188 107.285156 M 19.851562 110.957031 C 19.960938 112.640625 21.03125 113.847656 22.664062 114.144531 C 24.957031 114.5625 26.734375 112.871094 27.3125 109.710938 L 28.390625 103.800781 L 28.390625 103.804688 C 28.59375 102.675781 28.804688 101.839844 28.804688 101.839844 C 28.804688 101.839844 26.359375 101.828125 25.253906 107.480469 C 25.132812 108.144531 25.023438 108.75 24.957031 109.128906 C 24.699219 110.59375 23.851562 111.539062 22.65625 111.320312 C 21.417969 111.09375 20.914062 109.902344 21.183594 108.4375 L 22.097656 103.445312 L 25.421875 104.054688 C 26.003906 102.339844 27.027344 101.621094 27.027344 101.621094 L 25.996094 101.433594 L 13.882812 99.21875 L 12.429688 107.1875 C 11.808594 110.582031 12.972656 112.964844 15.519531 113.429688 C 17.492188 113.792969 19.128906 112.863281 19.851562 110.957031 "/>
<path style=" stroke:none;fill-rule:nonzero;fill:rgb(13.725491%,40.784314%,25.098041%);fill-opacity:1;" d="M 13.515625 119.679688 L 17.429688 119.824219 L 17.105469 128.558594 L 19.519531 128.652344 L 19.847656 119.914062 L 23.296875 120.046875 C 23.324219 119.898438 23.359375 119.761719 23.390625 119.625 C 23.402344 119.59375 23.410156 119.5625 23.417969 119.527344 C 23.453125 119.40625 23.488281 119.285156 23.527344 119.175781 C 23.527344 119.167969 23.53125 119.164062 23.53125 119.15625 C 23.574219 119.035156 23.617188 118.921875 23.664062 118.8125 C 23.671875 118.792969 23.679688 118.773438 23.6875 118.757812 C 23.730469 118.652344 23.777344 118.550781 23.824219 118.460938 C 23.824219 118.457031 23.824219 118.457031 23.824219 118.457031 C 24.175781 117.753906 24.542969 117.40625 24.542969 117.40625 L 23.863281 117.382812 L 23.496094 117.367188 L 19.949219 117.234375 L 17.53125 117.144531 L 13.617188 117 L 11.199219 116.910156 L 11.097656 119.589844 L 10.730469 129.429688 L 13.148438 129.519531 Z M 13.515625 119.679688 "/>
<path style=" stroke:none;fill-rule:nonzero;fill:rgb(13.725491%,40.784314%,25.098041%);fill-opacity:1;" d="M 26.226562 118.921875 C 26.269531 118.007812 26.335938 117.371094 26.335938 117.371094 C 26.335938 117.371094 23.929688 117.707031 23.636719 123.441406 L 23.40625 129.636719 L 25.820312 129.726562 Z M 26.226562 118.921875 "/>
<path style=" stroke:none;fill-rule:nonzero;fill:rgb(13.725491%,40.784314%,25.098041%);fill-opacity:1;" d="M 131.601562 226.84375 L 118.429688 226.699219 L 118.40625 229.117188 L 123.648438 229.175781 L 123.511719 241.847656 L 126.195312 241.878906 L 126.332031 229.203125 L 131.578125 229.261719 Z M 131.601562 226.84375 "/>
<path style=" stroke:none;fill-rule:nonzero;fill:rgb(13.725491%,40.784314%,25.098041%);fill-opacity:1;" d="M 68.320312 217.558594 C 66.519531 220.179688 63.710938 220.648438 61.191406 218.945312 C 58.699219 217.207031 58.132812 214.394531 59.933594 211.773438 C 59.933594 211.773438 59.890625 211.742188 59.890625 211.742188 C 59.890625 211.742188 59.933594 211.773438 59.933594 211.773438 C 61.730469 209.152344 64.5625 208.667969 67.082031 210.371094 C 69.574219 212.109375 70.121094 214.9375 68.320312 217.558594 M 68.507812 208.289062 C 64.773438 205.730469 60.363281 206.359375 57.699219 210.238281 C 55.035156 214.117188 56.035156 218.460938 59.765625 221.027344 C 63.496094 223.585938 67.890625 222.972656 70.554688 219.09375 C 73.21875 215.214844 72.238281 210.855469 68.507812 208.289062 "/>
<path style=" stroke:none;fill-rule:nonzero;fill:rgb(13.725491%,40.784314%,25.098041%);fill-opacity:1;" d="M 158.875 221.363281 C 158.875 221.363281 157.375 225.195312 156.558594 229.433594 C 153.570312 226.320312 150.226562 223.917969 150.226562 223.917969 L 147.5 224.722656 C 147.5 224.722656 152.167969 228.152344 155.957031 232.136719 L 157.539062 237.496094 L 158.824219 237.117188 L 160.113281 236.734375 L 158.527344 231.375 C 159.550781 225.972656 161.605469 220.558594 161.605469 220.558594 Z M 158.875 221.363281 "/>
<path style=" stroke:none;fill-rule:nonzero;fill:rgb(13.725491%,40.784314%,25.098041%);fill-opacity:1;" d="M 107.558594 229.273438 C 107.714844 228.351562 109.019531 227.894531 110.195312 228.09375 C 111.34375 228.289062 112.617188 228.769531 114.402344 230.230469 L 115.878906 228.078125 L 116.367188 227.363281 C 115.796875 227.160156 115.339844 227.390625 115.171875 227.5 C 113.984375 226.613281 112.480469 225.96875 110.84375 225.691406 C 107.507812 225.121094 104.992188 226.414062 104.546875 229.027344 C 103.640625 234.359375 112.097656 233.96875 111.5625 237.097656 C 111.386719 238.144531 109.949219 238.683594 108.542969 238.445312 C 106.949219 238.175781 105.011719 237.03125 103.710938 235.398438 L 102.183594 237.519531 C 103.53125 239.226562 105.703125 240.484375 108.082031 240.890625 C 111.355469 241.449219 114.058594 240.230469 114.535156 237.425781 C 115.472656 232.054688 107.039062 232.316406 107.558594 229.273438 "/>
<path style=" stroke:none;fill-rule:nonzero;fill:rgb(13.725491%,40.784314%,25.098041%);fill-opacity:1;" d="M 81.734375 230.234375 L 81.730469 230.238281 C 81.730469 230.222656 81.730469 230.210938 81.730469 230.195312 C 81.71875 230 81.710938 229.804688 81.703125 229.605469 C 81.53125 227.332031 80.527344 226.855469 80.527344 226.855469 C 81.179688 227.019531 81.742188 227.054688 81.742188 227.054688 C 83.546875 227.269531 85.355469 226.371094 86.308594 224.53125 C 87.746094 221.769531 86.453125 219.042969 83.117188 217.308594 L 78.492188 214.902344 L 78.496094 214.902344 C 77.472656 214.375 76.738281 213.929688 76.738281 213.929688 C 76.738281 213.929688 76.011719 216.25 81.0625 218.964844 L 81.640625 219.265625 L 82 219.453125 C 84.097656 220.542969 84.722656 221.964844 83.96875 223.414062 C 83.222656 224.847656 81.648438 225.050781 79.636719 224.003906 L 75.703125 221.957031 L 77.855469 217.816406 C 76.507812 216.84375 76.074219 215.757812 76.011719 215.589844 L 76 215.574219 L 69.84375 227.417969 L 72.222656 228.652344 L 74.585938 224.105469 L 78.679688 226.230469 C 78.851562 226.316406 79.140625 226.441406 79.304688 226.5 C 79.023438 229.640625 79.414062 232.390625 79.414062 232.390625 L 82.09375 233.785156 C 82.09375 233.785156 81.839844 232.199219 81.734375 230.234375 "/>
<path style=" stroke:none;fill-rule:nonzero;fill:rgb(13.725491%,40.784314%,25.098041%);fill-opacity:1;" d="M 147.058594 237.054688 L 147.058594 237.058594 C 147.050781 237.042969 147.039062 237.035156 147.03125 237.023438 C 146.910156 236.871094 146.789062 236.714844 146.671875 236.554688 C 145.21875 234.800781 144.125 234.988281 144.125 234.988281 C 144.75 234.746094 145.230469 234.449219 145.230469 234.449219 C 146.832031 233.585938 147.789062 231.8125 147.507812 229.757812 C 147.089844 226.671875 144.460938 225.1875 140.734375 225.695312 L 135.570312 226.394531 C 134.433594 226.554688 133.574219 226.613281 133.574219 226.613281 C 133.574219 226.613281 134.320312 228.925781 140.011719 228.234375 L 140.65625 228.144531 L 141.058594 228.089844 C 143.402344 227.773438 144.730469 228.574219 144.949219 230.191406 C 145.167969 231.792969 143.996094 232.867188 141.75 233.171875 L 137.359375 233.769531 L 136.730469 229.144531 C 135.066406 229.125 134.085938 228.492188 133.9375 228.386719 L 133.917969 228.382812 L 135.71875 241.609375 L 138.375 241.246094 L 137.683594 236.164062 L 142.25 235.542969 C 142.445312 235.515625 142.75 235.449219 142.917969 235.40625 C 144.503906 238.132812 146.40625 240.152344 146.40625 240.152344 L 149.402344 239.746094 C 149.402344 239.746094 148.277344 238.597656 147.058594 237.054688 "/>
<path style=" stroke:none;fill-rule:nonzero;fill:rgb(13.725491%,40.784314%,25.098041%);fill-opacity:1;" d="M 52.175781 198.207031 C 51.089844 196.761719 51.070312 195.511719 51.070312 195.511719 L 51.066406 195.511719 L 50.589844 195.996094 L 47.839844 198.789062 L 46.140625 200.511719 L 41.695312 205.03125 L 43.605469 206.910156 L 48.054688 202.394531 L 54.28125 208.527344 L 55.980469 206.804688 L 49.75 200.671875 Z M 52.175781 198.207031 "/>
<path style=" stroke:none;fill-rule:nonzero;fill:rgb(13.725491%,40.784314%,25.098041%);fill-opacity:1;" d="M 53.421875 195.394531 C 52.71875 194.695312 52.25 194.164062 52.25 194.164062 C 52.25 194.164062 50.875 196.171875 54.910156 200.253906 L 59.328125 204.601562 L 61.023438 202.878906 Z M 53.421875 195.394531 "/>
<path style=" stroke:none;fill-rule:nonzero;fill:rgb(13.725491%,40.784314%,25.098041%);fill-opacity:1;" d="M 89.558594 233.253906 L 90.84375 229.550781 L 99.101562 232.414062 L 99.894531 230.128906 L 91.636719 227.265625 L 92.769531 224.003906 C 92.636719 223.933594 92.515625 223.863281 92.394531 223.789062 C 92.367188 223.773438 92.335938 223.753906 92.308594 223.738281 C 92.203125 223.667969 92.097656 223.601562 92.003906 223.53125 C 91.996094 223.527344 91.992188 223.523438 91.988281 223.519531 C 91.882812 223.445312 91.785156 223.367188 91.695312 223.292969 C 91.679688 223.28125 91.664062 223.265625 91.648438 223.253906 C 91.5625 223.179688 91.480469 223.109375 91.40625 223.035156 C 90.835938 222.492188 90.609375 222.042969 90.609375 222.042969 L 90.386719 222.683594 L 90.269531 223.03125 L 89.101562 226.386719 L 88.3125 228.671875 L 87.027344 232.375 L 86.234375 234.660156 L 88.765625 235.539062 L 98.070312 238.765625 L 98.863281 236.480469 Z M 89.558594 233.253906 "/>
<path style=" stroke:none;fill-rule:nonzero;fill:rgb(13.725491%,40.784314%,25.098041%);fill-opacity:1;" d="M 92.550781 220.875 C 91.6875 220.566406 91.097656 220.316406 91.097656 220.316406 C 91.097656 220.316406 90.71875 222.714844 96.113281 224.671875 L 101.972656 226.703125 L 102.765625 224.417969 Z M 92.550781 220.875 "/>
<path style=" stroke:none;fill-rule:nonzero;fill:rgb(13.725491%,40.784314%,25.098041%);fill-opacity:1;" d="M 225.773438 114.894531 L 226.46875 128.386719 L 228.882812 128.265625 L 228.605469 122.855469 L 241.261719 122.207031 L 241.125 119.527344 L 228.46875 120.175781 L 228.191406 114.769531 Z M 225.773438 114.894531 "/>
<path style=" stroke:none;fill-rule:nonzero;fill:rgb(13.725491%,40.784314%,25.098041%);fill-opacity:1;" d="M 199.527344 194.796875 L 199.453125 194.875 L 199.011719 195.355469 C 199.011719 195.355469 199.613281 195.6875 200.160156 195.375 L 210.644531 205 L 212.457031 203.023438 L 201.339844 192.820312 Z M 199.527344 194.796875 "/>
<path style=" stroke:none;fill-rule:nonzero;fill:rgb(13.725491%,40.784314%,25.098041%);fill-opacity:1;" d="M 226.074219 133.609375 L 226.066406 133.71875 L 226.035156 134.367188 C 226.035156 134.367188 226.707031 134.238281 226.929688 133.652344 L 241.140625 134.390625 L 241.28125 131.710938 L 226.210938 130.929688 Z M 226.074219 133.609375 "/>
<path style=" stroke:none;fill-rule:nonzero;fill:rgb(13.725491%,40.784314%,25.098041%);fill-opacity:1;" d="M 210.410156 180.949219 C 210.410156 180.949219 213.46875 186.867188 217.851562 192.328125 C 211.265625 189.945312 204.675781 188.960938 204.675781 188.960938 L 203.070312 191.203125 C 203.070312 191.203125 210.714844 192.550781 218.777344 195.191406 L 219.605469 194.035156 L 220.03125 193.441406 L 220.859375 192.285156 C 215.757812 185.503906 212.015625 178.707031 212.015625 178.707031 Z M 210.410156 180.949219 "/>
<path style=" stroke:none;fill-rule:nonzero;fill:rgb(13.725491%,40.784314%,25.098041%);fill-opacity:1;" d="M 223.230469 101.546875 C 223.230469 101.546875 226.921875 103.371094 231.074219 104.546875 C 227.714844 107.257812 225.035156 110.382812 225.035156 110.382812 L 225.605469 113.167969 C 225.605469 113.167969 229.421875 108.8125 233.714844 105.375 L 239.191406 104.257812 L 238.921875 102.945312 L 238.652344 101.628906 L 233.175781 102.75 C 227.882812 101.269531 222.664062 98.757812 222.664062 98.757812 Z M 223.230469 101.546875 "/>
<path style=" stroke:none;fill-rule:nonzero;fill:rgb(13.725491%,40.784314%,25.098041%);fill-opacity:1;" d="M 228.191406 145.835938 C 227.277344 145.65625 226.855469 144.339844 227.085938 143.167969 C 227.3125 142.027344 227.828125 140.765625 229.335938 139.023438 L 227.226562 137.488281 L 226.523438 136.980469 C 226.304688 137.542969 226.523438 138.003906 226.628906 138.175781 C 225.710938 139.339844 225.023438 140.824219 224.699219 142.453125 C 224.042969 145.773438 225.261719 148.324219 227.863281 148.839844 C 233.167969 149.894531 233.011719 141.429688 236.121094 142.046875 C 237.167969 142.253906 237.664062 143.703125 237.386719 145.101562 C 237.074219 146.6875 235.875 148.59375 234.210938 149.847656 L 236.289062 151.433594 C 238.03125 150.132812 239.351562 147.996094 239.820312 145.628906 C 240.464844 142.371094 239.324219 139.636719 236.53125 139.082031 C 231.1875 138 231.21875 146.4375 228.191406 145.835938 "/>
<path style=" stroke:none;fill-rule:nonzero;fill:rgb(13.725491%,40.784314%,25.098041%);fill-opacity:1;" d="M 185.78125 207.261719 C 185.78125 207.261719 186.339844 207.660156 186.917969 207.417969 L 196.214844 218.195312 L 198.246094 216.441406 L 191.535156 208.664062 L 188.375 205.027344 Z M 185.78125 207.261719 "/>
<path style=" stroke:none;fill-rule:nonzero;fill:rgb(13.725491%,40.784314%,25.098041%);fill-opacity:1;" d="M 194.851562 199.4375 L 201.964844 207.6875 L 202.707031 208.546875 C 202.707031 208.546875 201.695312 207.738281 199.617188 207.441406 C 196.019531 206.976562 192.417969 206.109375 190.289062 205.546875 C 191 206.964844 192.449219 208.863281 195.230469 209.515625 C 197.699219 210.015625 201.148438 210.589844 204.777344 210.804688 L 206.742188 209.117188 L 196.882812 197.6875 Z M 194.851562 199.4375 "/>
<path style=" stroke:none;fill-rule:nonzero;fill:rgb(13.725491%,40.784314%,25.098041%);fill-opacity:1;" d="M 185.898438 221.089844 C 188.058594 218.636719 186.816406 215.664062 186.199219 214.523438 L 183.023438 209.183594 L 180.71875 210.554688 L 185.277344 218.222656 C 185.851562 219.183594 186.039062 220.183594 185.890625 221.097656 Z M 185.898438 221.089844 "/>
<path style=" stroke:none;fill-rule:nonzero;fill:rgb(13.725491%,40.784314%,25.098041%);fill-opacity:1;" d="M 188.089844 218.371094 L 188.085938 218.367188 C 188.03125 221.84375 183.8125 223.886719 183.8125 223.886719 C 181.886719 224.910156 179.625 224.320312 178.425781 222.296875 L 173.863281 214.628906 L 171.566406 215.992188 L 176.128906 223.664062 C 178.1875 227.125 181.683594 227.945312 185.226562 225.839844 C 187.75 224.339844 188.914062 222.148438 188.613281 219.753906 C 188.464844 218.902344 188.089844 218.371094 188.089844 218.371094 "/>
<path style=" stroke:none;fill-rule:nonzero;fill:rgb(13.725491%,40.784314%,25.098041%);fill-opacity:1;" d="M 234.640625 156.234375 L 234.644531 156.238281 C 234.628906 156.238281 234.617188 156.242188 234.601562 156.246094 C 234.410156 156.285156 234.21875 156.324219 234.023438 156.363281 C 231.804688 156.890625 231.492188 157.960938 231.492188 157.960938 C 231.550781 157.292969 231.5 156.726562 231.5 156.726562 C 231.425781 154.910156 230.253906 153.269531 228.289062 152.617188 C 225.332031 151.632812 222.84375 153.339844 221.65625 156.910156 L 220.011719 161.855469 L 220.011719 161.851562 C 219.652344 162.945312 219.328125 163.742188 219.328125 163.742188 C 219.328125 163.742188 221.730469 164.089844 223.617188 158.675781 L 223.820312 158.058594 C 223.820312 158.058594 223.824219 158.058594 223.824219 158.058594 L 223.953125 157.671875 C 224.695312 155.429688 226 154.589844 227.550781 155.105469 C 229.085938 155.613281 229.53125 157.136719 228.816406 159.289062 L 227.417969 163.496094 L 222.988281 162.023438 C 222.238281 163.507812 221.238281 164.109375 221.082031 164.195312 L 221.066406 164.210938 L 233.734375 168.421875 L 234.578125 165.875 L 229.714844 164.257812 L 231.167969 159.882812 C 231.226562 159.699219 231.300781 159.394531 231.335938 159.222656 C 234.480469 159.003906 237.136719 158.1875 237.136719 158.1875 L 238.089844 155.316406 C 238.089844 155.316406 236.5625 155.820312 234.640625 156.234375 "/>
<path style=" stroke:none;fill-rule:nonzero;fill:rgb(13.725491%,40.784314%,25.098041%);fill-opacity:1;" d="M 225.410156 180.207031 L 221.910156 178.449219 L 225.835938 170.636719 L 223.671875 169.550781 L 219.746094 177.363281 L 216.664062 175.8125 C 216.578125 175.933594 216.488281 176.042969 216.402344 176.152344 C 216.382812 176.179688 216.359375 176.207031 216.339844 176.230469 C 216.257812 176.328125 216.175781 176.421875 216.09375 176.507812 C 216.089844 176.511719 216.085938 176.515625 216.082031 176.523438 C 215.992188 176.617188 215.90625 176.703125 215.816406 176.78125 C 215.800781 176.796875 215.789062 176.808594 215.773438 176.820312 C 215.6875 176.898438 215.605469 176.972656 215.527344 177.035156 C 214.914062 177.53125 214.433594 177.691406 214.433594 177.691406 L 215.042969 177.996094 L 215.371094 178.164062 L 218.542969 179.757812 L 220.703125 180.84375 L 224.207031 182.605469 L 226.367188 183.691406 L 227.570312 181.292969 L 231.992188 172.496094 L 229.832031 171.410156 Z M 225.410156 180.207031 "/>
<path style=" stroke:none;fill-rule:nonzero;fill:rgb(13.725491%,40.784314%,25.098041%);fill-opacity:1;" d="M 213.53125 175.617188 C 213.113281 176.429688 212.789062 176.980469 212.789062 176.980469 C 212.789062 176.980469 215.117188 177.671875 217.765625 172.582031 L 220.550781 167.039062 L 218.390625 165.953125 Z M 213.53125 175.617188 "/>
<path style=" stroke:none;fill-rule:nonzero;fill:rgb(13.725491%,40.784314%,25.098041%);fill-opacity:1;" d="M 108.582031 182.773438 L 104.019531 184.726562 L 105.140625 186.902344 L 107.109375 186.351562 L 107.097656 194.679688 L 110.429688 194.679688 L 110.429688 182.773438 Z M 108.582031 182.773438 "/>
</g>
</svg>
